<?xml version="1.0" encoding="utf-8"?>
<!-- Generator: Adobe Illustrator 25.2.1, SVG Export Plug-In . SVG Version: 6.00 Build 0)  -->
<svg version="1.1" id="Layer_1" xmlns="http://www.w3.org/2000/svg" xmlns:xlink="http://www.w3.org/1999/xlink" x="0px" y="0px"
	 viewBox="0 0 240 60" style="enable-background:new 0 0 240 60;" xml:space="preserve">
<style type="text/css">
	.st0{fill:#EC1C24;}
	.st1{fill-rule:evenodd;clip-rule:evenodd;fill:#FFFFFF;}
	.st2{fill:#1A1A1A;}
</style>
<g>
	<path class="st0" d="M37.4,4.6l-0.1-0.4L36.8,4c-4.5-2.2-9.5-3.2-15.4-3.2C15.6,0.8,10.4,1.9,6,4L5.6,4.2L5.5,4.6
		c-2.7,8.3-3.9,16.2-3.9,25.6C1.6,38.9,3,48,5.5,55.8l0.1,0.4L6,56.4c4.4,1.8,9.4,2.8,14.5,2.8c0.3,0,0.6,0,0.9,0
		c6.8-0.2,11.8-1.1,15.4-2.8l0.4-0.2l0.1-0.4c2.7-9.2,3.9-17.6,3.7-25.6C40.9,21.1,39.6,12.3,37.4,4.6z"/>
	<g>
		<path class="st1" d="M35.5,5.9l-0.1-0.3l-0.2-0.1c-4.9-2-8.6-2.5-13.3-2.6c-0.2,0-0.4,0-0.7,0c-4.1,0-9.9,0.8-13.6,2.8H7.4
			L7.3,5.9c-2.7,7.3-3.6,17.2-3.6,24c0,8.6,1.4,17.9,3.6,24.4l0.1,0.3l0.2,0.1c3.9,1.6,8.6,2.4,13.7,2.4h0.3c4.1,0,9.9-0.7,13.5-2.3
			l0.3-0.1l0.1-0.3c1.8-6.7,3.7-14.8,3.5-24.2C38.8,21.9,37.6,13.2,35.5,5.9z M34.5,53.9c-3.5,1.4-8.9,2-12.8,2.1h-0.3
			c-4.9,0-9.3-0.7-13.1-2.2C6.2,47.4,4.9,38.3,4.9,30c0-6.4,0.9-16.3,3.5-23.4c3.6-1.8,9-2.5,12.9-2.5c0.2,0,0.4,0,0.6,0
			c4.5,0.1,8,0.6,12.6,2.5c2,7.1,3.2,15.6,3.4,23.8C38.1,39.4,36.3,47.3,34.5,53.9z"/>
		<path class="st1" d="M22.4,31.1c-3.6,0-5.6,2-5.6,1.8c-0.2-9.7,0.9-14.5,1.6-17.7c0.4-2,1.7-4.1,3.8-5.9c0.8-0.7,1.6-1.4,1.7-1.5
			s0-0.4-0.3-0.2c-0.2,0.1-0.6,0.5-1.4,0.9c-2.7,1.6-6,3.3-8.8,4.4c-0.8,0.3-1.6,0.7-2,0.8c-0.2,0.1-0.2,0.3,0.1,0.3
			c0.8-0.2,1.5-0.4,1.9-0.4c0.5-0.1,1.4-0.2,2.1,0.1c0.8,0.5,0.6,2.1,0.6,2.1c-0.8,4.9-1.2,9.3-1.1,15.3c0.2,8.3,1.7,14.1,3.6,21.1
			c0.1,0.6,0.7,0.5,0.6,0c-0.8-4.1-1.3-6.5-2-13.6c0-0.5-0.2-3.5-0.2-3.6c1.3-0.9,2.9-1.7,5.5-1.7s4.7,1.3,5.6,2.2L24.7,52
			c-0.1,0.5,0.4,0.6,0.6,0.2c0.1-0.5,4.7-17.1,4.5-17.4C28.6,32.9,26.3,31.2,22.4,31.1z"/>
	</g>
</g>
<g>
	<path class="st2" d="M59.5,24v-7.5h-6V24h-5.4V4.9h5.4v7h6v-7H65V24H59.5z"/>
	<path class="st2" d="M81.2,24l-1-3.4h-5.7l-1,3.4h-5.7l6.9-19.1H80L86.9,24H81.2z M78.5,15.2c-0.7-2.5-1-3.5-1.2-4.8
		c-0.2,1.3-0.5,2.4-1.2,4.8l-0.4,1.3h3.2L78.5,15.2z"/>
	<path class="st2" d="M97.6,24.3c-5.7,0-8.7-4.2-8.7-9.9c0-6.2,3.6-9.9,8.8-9.9c4.7,0,6.6,2,7.9,5.6l-4.8,1.9
		c-0.7-1.8-1.3-2.9-3.1-2.9c-2.2,0-3.2,2.2-3.2,5.3c0,2.9,0.9,5.3,3.2,5.3c1.7,0,2.4-0.9,3.4-2.7l4.5,2.4
		C104.3,21.9,102.2,24.3,97.6,24.3z"/>
	<path class="st2" d="M108.4,24V4.9h14.7v4.5h-9.4v2.5h5.7v4.4h-5.7v3.3h9.6V24H108.4z"/>
	<path class="st2" d="M136.6,9.5V24h-5.3V9.5h-5.4V4.9h16v4.6H136.6z"/>
	<path class="st2" d="M154.9,9.5V24h-5.3V9.5h-5.4V4.9h16v4.6H154.9z"/>
	<path class="st2" d="M163.3,24V4.9H178v4.5h-9.4v2.5h5.7v4.4h-5.7v3.3h9.6V24H163.3z"/>
	<path class="st2" d="M189.4,17.8h-2.7V24h-5.2V4.9h8.2c4.5,0,7.5,1.7,7.5,6.3C197.3,16.1,194,17.8,189.4,17.8z M189.7,9.2h-2.9v4.3
		h2.8c1.7,0,2.4-0.7,2.4-2.2C192,10,191.4,9.2,189.7,9.2z"/>
	<path class="st2" d="M200.1,24V4.9h14.7v4.5h-9.4v2.5h5.7v4.4h-5.7v3.3h9.6V24H200.1z"/>
	<g>
		<path class="st2" d="M56.4,55.4c-4.8,0-8.3-2.4-8.3-8.5V36h5.4v11c0,2.4,0.9,3.8,3,3.8s3-1.4,3-3.8V36h5.4v11
			C64.9,53,61.2,55.4,56.4,55.4z"/>
		<path class="st2" d="M81.1,55.1l-4.6-6.3c-0.8-1.2-2.5-3.6-3-4.5c0.1,0.8,0.2,3.4,0.2,4.9v5.9h-5.1V36h4.7l4.2,5.7
			c0.9,1.2,2.6,3.7,3,4.5c-0.1-0.8-0.2-3.4-0.2-5V36h5.1v19.1H81.1z"/>
		<path class="st2" d="M89.4,55.1V36h5.4v19.1H89.4z"/>
		<path class="st2" d="M109.7,55.1h-5.4L97.7,36h6l1.4,5.1c0.7,2.4,1.6,6.3,1.9,8.1c0.4-1.8,1.3-5.7,1.9-8.1l1.4-5.1h5.9L109.7,55.1
			z"/>
		<path class="st2" d="M119,55.1V36h14.7v4.5h-9.4V43h5.7v4.4h-5.7v3.3h9.6v4.5H119V55.1z"/>
		<path class="st2" d="M147.7,55.1l-3.1-6.5h-2.1v6.5h-5.2V36h8.6c4.5,0,7.5,1.7,7.5,6.2c0,2.9-1.3,4.6-3.4,5.6l3.8,7.3H147.7z
			 M145.7,40.3h-3.2v4.2h3.1c1.7,0,2.4-0.8,2.4-2.1C148,41.1,147.3,40.3,145.7,40.3z"/>
		<path class="st2" d="M164.1,55.4c-3.1,0-6.1-1-8.1-2.3l2.6-4.2c1.4,1,3.8,1.9,5.6,1.9c1.9,0,2.5-0.3,2.5-1.2
			c0-0.7-0.7-1.1-3.3-1.8c-4.6-1.1-6.8-2.3-6.8-6.2c0-3.6,2.9-6,7.5-6c3.3,0,5.6,0.8,7.6,2.2l-2.6,4.2c-1.7-1.1-3.4-1.8-5.3-1.8
			c-1.6,0-2,0.5-2,1.2s0.7,1,3.1,1.6c4.8,1.1,6.9,2.6,6.9,6.2C172.1,53.6,168.7,55.4,164.1,55.4z"/>
		<path class="st2" d="M175.5,55.1V36h5.4v19.1H175.5z"/>
		<path class="st2" d="M194.8,40.6v14.5h-5.3V40.6h-5.4V36h16v4.6H194.8z"/>
		<path class="st2" d="M214.2,48v7.1h-5.4V48l-7-12h6.1l1.5,2.9c1,2,1.8,3.8,2.2,5c0.4-1.1,1.2-3,2.2-5l1.5-2.9h6.1L214.2,48z"/>
	</g>
</g>
</svg>
